# Blender v2.80 (sub 60) OBJ File: 'hand.blend'
# www.blender.org
mtllib line3.mtl
o Plane.002
v -0.693650 1.190383 1.549653
v -0.638572 1.176167 1.492536
v -0.664235 1.197278 1.521327
v -0.283166 1.094846 2.275490
v -0.326300 1.209762 2.198259
v -0.297973 1.126041 2.266882
v -0.305672 1.162040 2.262921
v -0.309545 1.191051 2.240752
v -0.260201 1.232215 2.125683
v -0.229254 1.083951 2.214032
v -0.253095 1.210124 2.170615
v -0.243012 1.165909 2.203203
v -0.242636 1.113161 2.206676
v -0.253373 1.065672 2.243384
v -0.297190 1.218399 2.165399
v -0.261124 1.094130 2.234127
v -0.267594 1.146570 2.229709
v -0.275097 1.195417 2.205109
v -0.261932 0.956864 2.269249
v -0.275487 0.777576 2.276784
v -0.266140 0.156355 2.268359
v -0.245102 0.130002 2.251258
v -0.249209 0.747780 2.249673
v -0.237028 0.927191 2.241039
v -0.223191 0.143673 2.228009
v -0.227169 0.764311 2.228258
v -0.211124 0.943878 2.212538
v -0.483960 1.249015 1.958541
v -0.448300 1.229606 1.916509
v -0.383532 1.267441 1.858818
v -0.270813 0.466966 2.272572
v -0.247155 0.438891 2.250465
v -0.225180 0.453992 2.228133
vt 0.500000 0.281836
vt 0.997764 0.281822
vt 0.997764 0.375763
vt 0.500000 0.375781
vt 0.500000 0.921417
vt 0.997764 0.921417
vt 0.997764 1.000000
vt 0.500000 1.000000
vt 0.002799 0.921417
vt 0.002799 1.000000
vt 0.500000 0.869524
vt 0.002799 0.869524
vt 0.002799 0.724874
vt 0.498349 0.724874
vt 0.002799 0.617277
vt 0.500350 0.617277
vt 0.002799 0.486318
vt 0.499473 0.486328
vt 0.002799 0.375798
vt 0.997764 0.869524
vt 0.997764 0.724873
vt 0.997764 0.617277
vt 0.997764 0.486338
vt 0.002799 0.281849
vt 0.002799 0.085293
vt 0.500000 0.085285
vt 0.500000 0.167673
vt 0.002799 0.167685
vt 0.997764 0.085276
vt 0.997764 0.167660
vt 0.500000 0.002896
vt 0.997764 0.002892
vt 0.002799 0.002901
vn 0.7293 0.0809 0.6794
vn -0.2089 0.9775 -0.0294
vn 0.0441 0.9898 -0.1353
vn 0.2059 0.9086 0.3635
vn 0.6475 0.4597 0.6078
vn 0.7113 0.1784 0.6798
vn 0.8005 0.4283 0.4192
vn 0.1160 0.8927 0.4354
vn 0.5161 0.5171 0.6828
vn 0.7426 0.0980 0.6625
vn 0.5764 0.4142 0.7044
vn 0.7785 0.0865 0.6216
vn 0.7041 0.0037 0.7100
vn 0.7227 -0.0207 0.6909
vn 0.7030 0.0054 0.7112
vn 0.7246 -0.0102 0.6891
vn 0.1629 0.9866 -0.0010
vn -0.2621 0.9387 0.2240
vn 0.7186 0.0054 0.6954
vn 0.6615 0.0030 0.7499
usemtl None
s off
f 24/1/1 27/2/1 10/3/1 14/4/1
f 29/5/2 30/6/2 2/7/2 3/8/2
f 28/9/3 29/5/3 3/8/3 1/10/3
f 15/11/4 5/12/4 8/13/4 18/14/4
f 18/14/5 8/13/5 7/15/5 17/16/5
f 17/16/6 7/15/6 6/17/6 16/18/6
f 16/18/7 6/17/7 4/19/7 14/4/7
f 9/20/8 15/11/8 18/14/8 11/21/8
f 11/21/9 18/14/9 17/16/9 12/22/9
f 12/22/10 17/16/10 16/18/10 13/23/10
f 13/23/11 16/18/11 14/4/11 10/3/11
f 19/24/12 24/1/12 14/4/12 4/19/12
f 31/25/13 32/26/13 23/27/13 20/28/13
f 20/28/14 23/27/14 24/1/14 19/24/14
f 32/26/15 33/29/15 26/30/15 23/27/15
f 23/27/16 26/30/16 27/2/16 24/1/16
f 5/12/17 15/11/17 29/5/17 28/9/17
f 15/11/18 9/20/18 30/6/18 29/5/18
f 22/31/19 25/32/19 33/29/19 32/26/19
f 21/33/20 22/31/20 32/26/20 31/25/20
